{"title":"The.Hunger.Games.2012.BRRIP.720P.H264-ZEKTORM","uid":7523121,"size":3110588865,"categoryP":"video","categoryS":"hd___movies","magnet":"?xt=urn:btih:167c512099489ea3471d663aa742d6bf4a116bb5&amp;dn=The.Hunger.Games.2012.BRRIP.720P.H264-ZEKTORM&amp;tr=udp%3A%2F%2Ftracker.openbittorrent.com%3A80&amp;tr=udp%3A%2F%2Fopen.demonii.com%3A1337&amp;tr=udp%3A%2F%2Ftracker.coppersurfer.tk%3A6969&amp;tr=udp%3A%2F%2Fexodus.desync.com%3A6969","seeders":3,"leechers":1,"uploader":"blowley","files":3,"time":1344691969,"description":"Title                            : The Hunger Games\nYear                             : 2012\nGenre                            : Action | Adventure | Sci-Fi\niMDB URL                         : http://www.imdb.com/title/tt1392170/\n\nComplete name                    : The.Hunger.Games.2012.BRRIP.720P.H264-ZEKTORM.mp4\nFormat                           : MPEG-4\nFormat profile                   : Base Media\nCodec ID                         : isom\nFile size                        : 2.90 GiB\nDuration                         : 2h 22mn\nOverall bit rate                 : 2909 Kbps\nSubtitles                        : English (Format: srt)\n\nVideo\nID                               : 1\nFormat                           : AVC\nFormat/Info                      : Advanced Video Codec\nFormat profile                   : &lt;a class=&quot;__cf_email__&quot; href=&quot;/cdn-cgi/l/email-protection&quot; data-cfemail=&quot;fab2939d92bab6ced4ca&quot;&gt;[email&amp;#160;protected]&lt;/a&gt;&lt;script cf-hash='f9e31' type=&quot;text/javascript&quot;&gt;\n/* &lt;![CDATA[ */!function(){try{var t=&quot;currentScript&quot;in document?document.currentScript:function(){for(var t=document.getElementsByTagName(&quot;script&quot;),e=t.length;e--;)if(t[e].getAttribute(&quot;cf-hash&quot;))return t[e]}();if(t&amp;&amp;t.previousSibling){var e,r,n,i,c=t.previousSibling,a=c.getAttribute(&quot;data-cfemail&quot;);if(a){for(e=&quot;&quot;,r=parseInt(a.substr(0,2),16),n=2;a.length-n;n+=2)i=parseInt(a.substr(n,2),16)^r,e+=String.fromCharCode(i);e=document.createTextNode(e),c.parentNode.replaceChild(e,c)}}}catch(u){}}();/* ]]&gt; */&lt;/script&gt;\nFormat settings, CABAC           : Yes\nFormat settings, ReFrames        : 12 frames\nCodec ID                         : avc1\nCodec ID/Info                    : Advanced Video Coding\nDuration                         : 2h 22mn\nBit rate mode                    : Variable\nBit rate                         : 2464 Kbps\nWidth                            : 1280 pixels\nHeight                           : 528 pixels\nDisplay aspect ratio             : 2.424\nFrame rate mode                  : Constant\nFrame rate                       : 23.976 fps\nResolution                       : 24 bits\nColorimetry                      : 4:2:0\nScan type                        : Progressive\nBits/(Pixel*Frame)               : 0.152\nStream size                      : 2.45 GiB (85%)\nTitle                            : Video\nWriting library                  : x264\n\nAudio\nID                               : 2\nFormat                           : AAC\nFormat/Info                      : Advanced Audio Codec\nFormat version                   : Version 4\nFormat profile                   : LC\nFormat settings, SBR             : No\nCodec ID                         : 40\nDuration                         : 2h 22mn\nBit rate mode                    : Variable\nBit rate                         : 441 Kbps\nMaximum bit rate                 : 556 Kbps\nChannel(s)                       : 6 channels\nChannel positions                : Front: L C R, Rear: L R, LFE\nSampling rate                    : 48.0 KHz\nResolution                       : 16 bits\nStream size                      : 450 MiB (15%)\nLanguage                         : English\n\n\nScreenshots:\n\n[img]http://img6.imageshack.us/img6/1630/snapthg1.png[/img]\n\n[img]http://img94.imageshack.us/img94/5214/snapthg2.png[/img]\n","torrent":{"xt":"urn:btih:167c512099489ea3471d663aa742d6bf4a116bb5","amp;dn":"The.Hunger.Games.2012.BRRIP.720P.H264-ZEKTORM","amp;tr":["udp%3A%2F%2Ftracker.openbittorrent.com%3A80","udp%3A%2F%2Fopen.demonii.com%3A1337","udp%3A%2F%2Ftracker.coppersurfer.tk%3A6969","udp%3A%2F%2Fexodus.desync.com%3A6969"],"infoHash":"167c512099489ea3471d663aa742d6bf4a116bb5","infoHashBuffer":{"type":"Buffer","data":[22,124,81,32,153,72,158,163,71,29,102,58,167,66,214,191,74,17,107,181]},"announce":[],"urlList":[]}}